<svg width="21" height="27" viewBox="0 0 21 27" fill="none" xmlns="http://www.w3.org/2000/svg">
<path d="M18.6548 22.9243C17.6118 24.4825 16.506 26.003 14.8222 26.0281C13.1384 26.0658 12.598 25.0354 10.688 25.0354C8.76543 25.0354 8.17484 26.003 6.57897 26.0658C4.93284 26.1286 3.68882 24.4071 2.63329 22.8866C0.484527 19.7829 -1.1616 14.0654 1.04999 10.2203C2.14322 8.31024 4.1035 7.10392 6.22713 7.06622C7.83556 7.04109 9.36859 8.15945 10.3613 8.15945C11.3414 8.15945 13.2012 6.81491 15.1489 7.01596C15.9657 7.05366 18.2527 7.34267 19.7229 9.504C19.6098 9.57939 16.9961 11.1124 17.0212 14.2916C17.0589 18.0865 20.3512 19.3556 20.3889 19.3682C20.3512 19.4562 19.8611 21.1777 18.6548 22.9243ZM11.4797 2.81896C12.397 1.77599 13.9174 0.984345 15.174 0.934082C15.3374 2.40429 14.7468 3.88706 13.8672 4.94259C13.0001 6.01069 11.5676 6.84004 10.1602 6.72694C9.97175 5.28187 10.6754 3.77397 11.4797 2.81896Z" fill="white"/>
</svg>
