<svg width="30" height="24" viewBox="0 0 30 24" fill="none" xmlns="http://www.w3.org/2000/svg">
<path d="M1.33334 24C0.95556 24 0.638671 23.872 0.382671 23.616C0.126671 23.36 -0.000884275 23.0436 4.61361e-06 22.6667C4.61361e-06 22.2889 0.128005 21.972 0.384005 21.716C0.640004 21.46 0.956449 21.3324 1.33334 21.3333H28C28.3778 21.3333 28.6947 21.4613 28.9507 21.7173C29.2067 21.9733 29.3342 22.2898 29.3333 22.6667C29.3333 23.0444 29.2053 23.3613 28.9493 23.6173C28.6933 23.8733 28.3769 24.0009 28 24H1.33334ZM4 20C3.26667 20 2.63867 19.7387 2.116 19.216C1.59334 18.6933 1.33245 18.0658 1.33334 17.3333V2.66667C1.33334 1.93333 1.59467 1.30533 2.11734 0.782668C2.64 0.260002 3.26756 -0.000886625 4 2.26372e-06H25.3333C26.0667 2.26372e-06 26.6947 0.261336 27.2173 0.784002C27.74 1.30667 28.0009 1.93422 28 2.66667V17.3333C28 18.0667 27.7387 18.6947 27.216 19.2173C26.6933 19.74 26.0658 20.0009 25.3333 20H4ZM4 17.3333H25.3333V2.66667H4V17.3333Z" fill="white"/>
</svg>
