<svg width="36" height="36" viewBox="0 0 36 36" fill="none" xmlns="http://www.w3.org/2000/svg">
<path d="M17.9166 0C8.07285 0 0.101562 8.00576 0.101562 17.87C0.101562 27.7342 8.07285 35.74 17.9166 35.74C27.7782 35.74 35.7673 27.7342 35.7673 17.87C35.7673 8.00576 27.7782 0 17.9166 0ZM25.0676 25.018C24.9026 25.1837 24.7066 25.3151 24.4909 25.4048C24.2752 25.4944 24.0439 25.5406 23.8104 25.5406C23.5768 25.5406 23.3455 25.4944 23.1298 25.4048C22.9141 25.3151 22.7181 25.1837 22.5531 25.018L16.6861 19.1388C16.5176 18.9733 16.3836 18.7759 16.2917 18.5581C16.1999 18.3403 16.1521 18.1064 16.1511 17.87V10.722C16.1511 9.73915 16.9536 8.935 17.9344 8.935C18.9152 8.935 19.7177 9.73915 19.7177 10.722V17.1373L25.0676 22.4983C25.7631 23.1953 25.7631 24.3211 25.0676 25.018Z" fill="white" fill-opacity="0.75"/>
</svg>
