<svg width="36" height="36" viewBox="0 0 36 36" fill="none" xmlns="http://www.w3.org/2000/svg">
<path d="M18.0072 0C14.4807 0 11.0333 1.04792 8.10114 3.01123C5.16894 4.97454 2.88357 7.76508 1.53403 11.0299C0.184483 14.2948 -0.168619 17.8874 0.519373 21.3534C1.20736 24.8193 2.90555 28.003 5.39918 30.5019C7.89281 33.0007 11.0699 34.7024 14.5287 35.3918C17.9874 36.0812 21.5725 35.7274 24.8306 34.3751C28.0887 33.0227 30.8734 30.7326 32.8327 27.7943C34.7919 24.856 35.8376 21.4014 35.8376 17.8676C35.8324 13.1304 33.9521 8.58878 30.6094 5.2391C27.2667 1.88941 22.7345 0.00525476 18.0072 0ZM14.5517 25.147H21.4627C20.7137 27.4333 19.5414 29.5577 18.0072 31.4089C16.473 29.5577 15.3007 27.4333 14.5517 25.147ZM13.6173 21.1764C13.3069 18.9815 13.3069 16.7537 13.6173 14.5588H22.3971C22.7075 16.7537 22.7075 18.9815 22.3971 21.1764H13.6173ZM4.13908 17.8676C4.13904 16.7525 4.27374 15.6414 4.54027 14.5588H9.62359C9.35503 16.7564 9.35503 18.9787 9.62359 21.1764H4.54027C4.27374 20.0937 4.13904 18.9827 4.13908 17.8676ZM21.4627 10.5882H14.5517C15.3007 8.30186 16.473 6.17748 18.0072 4.32627C19.5414 6.17748 20.7137 8.30186 21.4627 10.5882ZM26.3908 14.5588H31.4741C32.009 16.7321 32.009 19.0031 31.4741 21.1764H26.3908C26.6594 18.9787 26.6594 16.7564 26.3908 14.5588ZM29.8149 10.5882H25.6016C25.0644 8.64601 24.2909 6.7774 23.2985 5.02443C25.9989 6.14882 28.2784 8.09507 29.8149 10.5882ZM12.7241 5.02443C11.7289 6.777 10.9526 8.64563 10.4128 10.5882H6.19949C7.73819 8.09375 10.0207 6.14735 12.7241 5.02443ZM6.19949 25.147H10.4128C10.9526 27.0895 11.7289 28.9581 12.7241 30.7107C10.0207 29.5878 7.73819 27.6414 6.19949 25.147ZM23.2985 30.7107C24.2909 28.9578 25.0644 27.0891 25.6016 25.147H29.8149C28.2784 27.6401 25.9989 29.5863 23.2985 30.7107Z" fill="white" fill-opacity="0.75"/>
</svg>
