<svg width="41" height="36" viewBox="0 0 41 36" fill="none" xmlns="http://www.w3.org/2000/svg">
<path d="M22.1918 1.67531V2.40826C22.6376 2.49203 23.0695 2.59673 23.4596 2.70144C24.3512 2.93878 24.8806 3.8602 24.6438 4.7537C24.407 5.6472 23.4874 6.17771 22.5958 5.94038C21.8365 5.73795 21.126 5.59834 20.4921 5.59136C19.9836 5.58438 19.4681 5.71002 19.1407 5.8985C18.9944 5.98924 18.9248 6.06603 18.8969 6.10791C18.876 6.14281 18.8481 6.19168 18.8481 6.30336V6.34525C18.8621 6.35921 18.9108 6.42901 19.078 6.52674C19.482 6.77106 20.0811 6.95953 20.9867 7.23177L21.0494 7.25271C21.8226 7.48306 22.8535 7.79718 23.6895 8.32072C24.6438 8.92104 25.5076 9.91925 25.5285 11.455C25.5494 13.0256 24.7344 14.1704 23.6686 14.8405C23.2018 15.1267 22.7003 15.3291 22.1848 15.4548V16.1947C22.1848 17.1231 21.4395 17.87 20.513 17.87C19.5865 17.87 18.8412 17.1231 18.8412 16.1947V15.3989C18.1794 15.2384 17.5734 15.0289 17.0579 14.8544C16.9116 14.8056 16.7723 14.7567 16.6399 14.7148C15.7622 14.4216 15.2885 13.4723 15.5811 12.5928C15.8737 11.7132 16.821 11.2386 17.6987 11.5317C17.8799 11.5946 18.047 11.6504 18.2073 11.7062C19.1546 12.0273 19.8373 12.2577 20.5687 12.2856C21.126 12.3066 21.6206 12.1739 21.9062 11.9994C22.0385 11.9157 22.1012 11.8459 22.1291 11.797C22.157 11.7551 22.1918 11.6713 22.1848 11.5108V11.4968C22.1848 11.427 22.1848 11.3502 21.9062 11.1757C21.5091 10.9244 20.91 10.729 20.0184 10.4567L19.8861 10.4149C19.1337 10.1915 18.1446 9.89132 17.3504 9.40967C16.41 8.84425 15.5045 7.87397 15.4975 6.33129C15.4905 4.73276 16.3961 3.63682 17.4271 3.02254C17.8729 2.75729 18.3535 2.57579 18.8342 2.45014V1.67531C18.8342 0.74691 19.5795 0 20.506 0C21.4325 0 22.1778 0.74691 22.1778 1.67531H22.1918ZM40.0386 23.4753C40.9511 24.7178 40.6864 26.463 39.4464 27.3774L30.6276 33.8902C28.9975 35.0908 27.0331 35.74 25.006 35.74H2.68711C1.45414 35.74 0.458008 34.7418 0.458008 33.5063V29.0388C0.458008 27.8032 1.45414 26.805 2.68711 26.805H5.25058L8.3783 24.292C9.95957 23.0216 11.924 22.3375 13.9511 22.3375H24.9782C26.2111 22.3375 27.2073 23.3357 27.2073 24.5713C27.2073 25.8068 26.2111 26.805 24.9782 26.805H19.4054C18.7924 26.805 18.2908 27.3076 18.2908 27.9219C18.2908 28.5362 18.7924 29.0388 19.4054 29.0388H27.8063L36.1446 22.882C37.3845 21.9675 39.126 22.2328 40.0386 23.4753Z" fill="white" fill-opacity="0.75"/>
</svg>
