<svg width="31" height="36" viewBox="0 0 31 36" fill="none" xmlns="http://www.w3.org/2000/svg">
<path d="M20.1031 10.4242H28.2765L20.1031 2.23375V10.4242ZM9.7006 0H21.5892L30.5056 8.935V26.805C30.5056 27.5949 30.1924 28.3525 29.6351 28.911C29.0777 29.4695 28.3217 29.7833 27.5334 29.7833H9.7006C8.91234 29.7833 8.15636 29.4695 7.59898 28.911C7.0416 28.3525 6.72846 27.5949 6.72846 26.805V2.97833C6.72846 2.18843 7.0416 1.43088 7.59898 0.872334C8.15636 0.313788 8.91234 0 9.7006 0ZM3.75632 5.95667V32.7617H27.5334V35.74H3.75632C2.96806 35.74 2.21208 35.4262 1.6547 34.8677C1.09731 34.3091 0.78418 33.5516 0.78418 32.7617V5.95667H3.75632Z" fill="white" fill-opacity="0.75"/>
</svg>
