<svg width="49" height="36" viewBox="0 0 49 36" fill="none" xmlns="http://www.w3.org/2000/svg">
<path d="M33.8318 30.9747V35.74H0.543945V30.9747C0.543945 30.9747 0.543945 21.4441 17.1879 21.4441C33.8318 21.4441 33.8318 30.9747 33.8318 30.9747ZM25.5098 8.33943C25.5098 6.69007 25.0218 5.07775 24.1073 3.70636C23.1929 2.33497 21.8932 1.2661 20.3726 0.634917C18.8519 0.0037352 17.1786 -0.161411 15.5643 0.160363C13.95 0.482137 12.4672 1.27638 11.3034 2.44265C10.1395 3.60892 9.34692 5.09485 9.02581 6.71251C8.70471 8.33018 8.86951 10.0069 9.49938 11.5307C10.1293 13.0546 11.1959 14.357 12.5644 15.2733C13.933 16.1896 15.5419 16.6787 17.1879 16.6787C19.395 16.6787 21.5117 15.8001 23.0724 14.2362C24.6331 12.6723 25.5098 10.5512 25.5098 8.33943ZM33.6891 21.4441C35.1508 22.5776 36.3469 24.0184 37.1931 25.6649C38.0393 27.3115 38.5152 29.124 38.5872 30.9747V35.74H48.098V30.9747C48.098 30.9747 48.098 22.3256 33.6891 21.4441ZM31.4541 0.000125278C29.8175 -0.00900677 28.2169 0.481317 26.8651 1.40589C28.3094 3.42814 29.086 5.85262 29.086 8.33943C29.086 10.8262 28.3094 13.2507 26.8651 15.273C28.2169 16.1975 29.8175 16.6879 31.4541 16.6787C33.6612 16.6787 35.7779 15.8001 37.3386 14.2362C38.8993 12.6723 39.7761 10.5512 39.7761 8.33943C39.7761 6.12771 38.8993 4.00657 37.3386 2.44265C35.7779 0.878729 33.6612 0.000125278 31.4541 0.000125278Z" fill="white" fill-opacity="0.75"/>
</svg>
