<svg width="23" height="24" viewBox="0 0 23 24" fill="none" xmlns="http://www.w3.org/2000/svg">
<path d="M1.22466 23.0328L22.0593 12.6165C22.683 12.3047 22.683 11.4147 22.0593 11.1029L1.22466 0.686617C0.661984 0.405308 0 0.814419 0 1.44339V22.276C0 22.905 0.661984 23.3141 1.22466 23.0328Z" fill="#F6B94C"/>
<path d="M0.282592 0.812012C0.111911 0.963568 0 1.18471 0 1.44316V22.2758C0 22.5343 0.111911 22.7554 0.282592 22.907L11.3301 11.8595L0.282592 0.812012Z" fill="#52C1FF"/>
<path d="M15.4114 7.77891L1.22527 0.686564C0.893776 0.520845 0.52799 0.594894 0.283203 0.812192L11.3307 11.8597L15.4114 7.77891Z" fill="#67C7A5"/>
<path d="M0.283203 22.9073C0.52799 23.1246 0.893776 23.1987 1.22527 23.033L15.4114 15.9406L11.3307 11.8599L0.283203 22.9073Z" fill="#F56C61"/>
</svg>
